<svg width="32" height="32" viewBox="0 0 32 32" fill="none" xmlns="http://www.w3.org/2000/svg">
<path fill-rule="evenodd" clip-rule="evenodd" d="M32 0.967742C32 0.433273 31.5667 0 31.0323 0H0.967742C0.433273 0 0 0.433272 0 0.967741V31.0323C0 31.5667 0.433272 32 0.967741 32H31.0323C31.5667 32 32 31.5667 32 31.0323V0.967742ZM31.9998 10.774C31.9998 10.2395 31.5665 9.80625 31.0321 9.80625H10.774C10.2395 9.80625 9.80625 10.2395 9.80625 10.774V31.0321C9.80625 31.5665 10.2395 31.9998 10.774 31.9998H31.0321C31.5665 31.9998 31.9998 31.5665 31.9998 31.0321V10.774Z" fill="#175347"/>
<rect x="21.2871" y="21.291" width="10.7097" height="10.7097" rx="0.967742" fill="#175347"/>
</svg>
